# xmcd
#
# Track frame offsets: 
#        150
#        4188
#        21528
#        34509
#        36271
#        56649
#        64604
#        79285
#        103898
#        112937
#        114631
#        140382
#        149607
#        171857
#        180950
#        184701
#        222179
#        227356
#
# Disc length: 3246 seconds
#
# Revision: 0
# Processed by: cddbd v1.5.2PL0 Copyright (c) Steve Scherf et al.
# Submitted via: ExactAudioCopy v0.99pb4
#
DISCID=f60cac12
DTITLE=Lush Life - Order Of Operations Instrumentals
DYEAR=2007
DGENRE=Hip-Hop
TTITLE0=Drifting
TTITLE1=The Deepest Concentration
TTITLE2=No Foundation
TTITLE3=Out Of My Mind
TTITLE4=Mellow,Mellow
TTITLE5=Procession #2
TTITLE6=Order of Operations
TTITLE7=The Claremont Shuffle
TTITLE8=Nocturne Pour Les Coins D'elle Yeux
TTITLE9=Soul Food
TTITLE10=Dryad's Bubble
TTITLE11=Order of Operations (Sunday Mahogany Reprise)
TTITLE12=The Day The Universe Changed
TTITLE13=Truth And Beauty In The Digital Era
TTITLE14=Earlybird Catches The Urn
TTITLE15=The League of Frightened Men
TTITLE16=Live 82
TTITLE17=Bottle Rocket (Produced by Levitatorz)
EXTD=
EXTT0=
EXTT1=
EXTT2=
EXTT3=
EXTT4=
EXTT5=
EXTT6=
EXTT7=
EXTT8=
EXTT9=
EXTT10=
EXTT11=
EXTT12=
EXTT13=
EXTT14=
EXTT15=
EXTT16=
EXTT17=
PLAYORDER=
